<svg width="314" height="47" viewBox="0 0 314 47" fill="none" xmlns="http://www.w3.org/2000/svg">
<rect width="314" height="47" rx="10" fill="#FF3D00"/>
<path d="M101.559 26.0625H99.3525V23.7334H101.559V26.0625ZM107.729 24.0674H93.2002V22.4326H107.729V24.0674ZM101.55 17.5371H99.3262V15.6035H101.55V17.5371ZM101.154 17.9502C101.154 18.7178 100.896 19.3945 100.381 19.9805C99.8652 20.5605 99.1006 21.0234 98.0869 21.3691C97.0732 21.7148 95.8369 21.9287 94.3779 22.0107L93.7715 20.3584C95.002 20.2998 96.0215 20.1562 96.8301 19.9277C97.6445 19.6934 98.2393 19.4062 98.6143 19.0664C98.9951 18.7266 99.1855 18.3545 99.1855 17.9502V17.625H101.154V17.9502ZM101.699 17.9502C101.699 18.3545 101.887 18.7266 102.262 19.0664C102.643 19.4062 103.24 19.6934 104.055 19.9277C104.875 20.1562 105.903 20.2998 107.14 20.3584L106.489 22.0107C105.054 21.9287 103.829 21.7148 102.815 21.3691C101.808 21.0234 101.04 20.5605 100.513 19.9805C99.9912 19.3945 99.7305 18.7178 99.7305 17.9502V17.625H101.699V17.9502ZM106.349 18.5303H94.5713V16.8691H106.349V18.5303ZM105.979 28.9717H97.0674V30.5273H94.8613V27.4688H103.765V26.6865H94.8525V25.0781H105.979V28.9717ZM106.401 31.5029H94.8613V29.8594H106.401V31.5029ZM114.522 19.2334C114.522 20.6396 114.35 21.9492 114.004 23.1621C113.664 24.375 113.148 25.4443 112.457 26.3701C111.766 27.29 110.904 27.9873 109.873 28.4619L108.511 26.5898C109.419 26.2031 110.184 25.6348 110.805 24.8848C111.432 24.1348 111.9 23.2734 112.211 22.3008C112.521 21.3281 112.677 20.3057 112.677 19.2334V16.8428H114.522V19.2334ZM114.953 19.2334C114.953 20.2529 115.103 21.2256 115.401 22.1514C115.706 23.0713 116.163 23.8945 116.772 24.6211C117.382 25.3477 118.123 25.8955 118.996 26.2646L117.678 28.0664C116.688 27.6152 115.847 26.9473 115.155 26.0625C114.47 25.1777 113.957 24.1523 113.617 22.9863C113.277 21.8203 113.107 20.5693 113.107 19.2334V16.8428H114.953V19.2334ZM122.116 31.6611H119.84V15.6035H122.116V31.6611ZM133.806 23.918H125.403V22.1162H133.806V23.918ZM130.694 26.9766H128.453V23.5664H130.694V26.9766ZM133.727 18.8115H127.627V22.7139H125.403V17.0449H133.727V18.8115ZM137.717 31.6611H135.493V15.6035H137.717V31.6611ZM124.349 26.6426C126.253 26.6543 128.058 26.6367 129.763 26.5898C131.474 26.543 133.082 26.4375 134.588 26.2734L134.746 27.9082C133.662 28.0723 132.546 28.1953 131.397 28.2773C130.249 28.3594 129.156 28.4121 128.119 28.4355C127.088 28.459 125.919 28.4707 124.612 28.4707L124.349 26.6426ZM151.7 19.9453H147.631V18.126H151.7V19.9453ZM151.771 23.3643H147.631V21.5889H151.771V23.3643ZM148.105 24.709H140.503V16.9219H148.105V24.709ZM142.727 22.9688H145.899V18.6973H142.727V22.9688ZM153.317 27.2754H151.085V15.6387H153.317V27.2754ZM153.66 31.3447H142.665V29.5342H153.66V31.3447ZM144.933 30.4658H142.665V26.1768H144.933V30.4658ZM172.249 23.6104H170.008V15.6035H172.249V23.6104ZM174.411 20.5605H171.317V18.7148H174.411V20.5605ZM172.249 28.6113H163.873V30.5537H161.667V26.9854H170.017V25.9746H161.641V24.252H172.249V28.6113ZM172.715 31.4414H161.667V29.6748H172.715V31.4414ZM163.979 16.0957C164.787 16.0957 165.517 16.251 166.167 16.5615C166.823 16.8662 167.336 17.2939 167.705 17.8447C168.08 18.3955 168.268 19.0195 168.268 19.7168C168.268 20.4082 168.08 21.0322 167.705 21.5889C167.336 22.1396 166.823 22.5703 166.167 22.8809C165.517 23.1855 164.787 23.3379 163.979 23.3379C163.17 23.3379 162.438 23.1826 161.781 22.8721C161.125 22.5615 160.606 22.1309 160.226 21.5801C159.851 21.0293 159.663 20.4082 159.663 19.7168C159.663 19.0195 159.851 18.3955 160.226 17.8447C160.601 17.2939 161.116 16.8662 161.772 16.5615C162.429 16.251 163.164 16.0957 163.979 16.0957ZM163.979 17.9238C163.568 17.918 163.202 17.9883 162.88 18.1348C162.558 18.2812 162.306 18.4893 162.124 18.7588C161.942 19.0283 161.852 19.3477 161.852 19.7168C161.852 20.0859 161.942 20.4111 162.124 20.6924C162.306 20.9678 162.558 21.1816 162.88 21.334C163.202 21.4863 163.568 21.5625 163.979 21.5625C164.389 21.5625 164.752 21.4863 165.068 21.334C165.385 21.1816 165.634 20.9678 165.815 20.6924C165.997 20.4111 166.088 20.0859 166.088 19.7168C166.088 19.3477 165.997 19.0283 165.815 18.7588C165.634 18.4893 165.385 18.2812 165.068 18.1348C164.752 17.9883 164.389 17.918 163.979 17.9238ZM188.5 25.1221H186.259V15.6387H188.5V25.1221ZM177.364 22.7314C179.11 22.7373 180.522 22.7139 181.601 22.6611C182.679 22.6025 183.769 22.4824 184.87 22.3008L185.143 24.1025C183.982 24.2783 182.825 24.4014 181.671 24.4717C180.517 24.5361 179.081 24.5684 177.364 24.5684H175.958V22.7314H177.364ZM183.35 21.3516H178.164V23.8564H175.958V19.6377H181.135V18.3105H175.94V16.5527H183.35V21.3516ZM188.5 31.4414H177.786V25.8164H188.5V31.4414ZM179.992 29.6396H186.303V27.6006H179.992V29.6396ZM203.362 24.9463H201.121V15.6035H203.362V24.9463ZM205.524 21.0967H202.729V19.2686H205.524V21.0967ZM193.369 18.6006H196.647V16.5615H198.897V24.1729H191.146V16.5615H193.369V18.6006ZM196.647 22.415V20.332H193.369V22.415H196.647ZM203.45 27.4512H195.145V30.9229H192.903V25.6758H203.45V27.4512ZM203.749 31.415H192.903V29.6396H203.749V31.415ZM219.675 31.6172H217.398V15.6035H219.675V31.6172ZM214.885 17.291C214.885 19.0078 214.653 20.5664 214.19 21.9668C213.733 23.3613 212.957 24.6445 211.861 25.8164C210.766 26.9824 209.298 28.002 207.458 28.875L206.28 27.082C207.821 26.3555 209.058 25.5381 209.989 24.6299C210.921 23.7217 211.598 22.7021 212.02 21.5713C212.441 20.4404 212.652 19.1455 212.652 17.6865V17.291H214.885ZM213.681 19.0576H207.133V17.291H213.681V19.0576Z" fill="white"/>
</svg>
