<svg width="198" height="206" viewBox="0 0 198 206" fill="none" xmlns="http://www.w3.org/2000/svg">
<rect width="48" height="166" fill="#F5F5F5"/>
<path d="M8 27.5312L47.3193 -0.000419617L124 114L102 141L8 27.5312Z" fill="#F5F5F5"/>
<path d="M151.214 2L190.533 29.5317L102 141L78 112L151.214 2Z" fill="#F5F5F5"/>
<rect x="150" y="2" width="48" height="166" fill="#F5F5F5"/>
<path d="M63.1009 186.455H67.4545L71.1477 195.46H71.3182L75.0114 186.455H79.3651V201H75.9418V192.065H75.821L72.3267 200.908H70.1392L66.6449 192.016H66.5241V201H63.1009V186.455ZM84.7042 201H80.9258L85.8335 186.455H90.5138L95.4215 201H91.6431L88.2269 190.119H88.1133L84.7042 201ZM84.1999 195.276H92.0977V197.946H84.1999V195.276ZM94.6953 189.31V186.455H106.989V189.31H102.579V201H99.1129V189.31H94.6953ZM108.706 201V186.455H118.848V189.31H112.222V192.293H118.33V195.155H112.222V198.145H118.848V201H108.706ZM120.326 186.455H124.253L127.328 192.541H127.456L130.532 186.455H134.459L129.14 196.142V201H125.645V196.142L120.326 186.455Z" fill="#F5F5F5"/>
</svg>
