<svg width="314" height="47" viewBox="0 0 314 47" fill="none" xmlns="http://www.w3.org/2000/svg">
<rect width="314" height="47" rx="10" fill="#7EC8FF"/>
<path d="M112.659 31.6172H110.497V15.6035H112.659V31.6172ZM111.086 23.6191H108.37V21.7998H111.086V23.6191ZM109.003 30.8438H106.902V15.8936H109.003V30.8438ZM101.752 26.6338H99.5107V17.3965H101.752V26.6338ZM100.583 25.7725C101.509 25.7725 102.411 25.7373 103.29 25.667C104.169 25.5967 105.068 25.4766 105.988 25.3066L106.226 27.2402C105.218 27.4102 104.251 27.5332 103.325 27.6094C102.405 27.6797 101.491 27.7148 100.583 27.7148H99.5107V25.7725H100.583ZM126.924 17.1504C126.924 18.9668 126.73 20.5811 126.344 21.9932C125.957 23.3994 125.236 24.7119 124.182 25.9307C123.133 27.1436 121.65 28.2334 119.734 29.2002L118.513 27.5039C120.147 26.6953 121.419 25.8018 122.327 24.8232C123.235 23.8447 123.865 22.7695 124.217 21.5977C124.568 20.4258 124.744 19.04 124.744 17.4404V17.1504H126.924ZM126.08 18.9521H119.523V17.1504H126.08V18.9521ZM118.952 23.3555L118.68 21.4395L124.788 21.0791V22.8105L118.952 23.3555ZM131.204 31.5908H128.954V15.6035H131.204V31.5908ZM133.463 23.6016H130.624V21.7559H133.463V23.6016ZM147.174 24.8232H135.871V23.0303H147.174V24.8232ZM148.773 29.6748H134.148V27.8291H148.773V29.6748ZM147.06 18.7676H138.086V23.7773H135.871V16.957H147.06V18.7676ZM161.069 25.5879C162.241 25.5879 163.252 25.7051 164.102 25.9395C164.957 26.1738 165.616 26.5195 166.079 26.9766C166.548 27.4277 166.782 27.9727 166.782 28.6113C166.782 29.2324 166.548 29.7686 166.079 30.2197C165.616 30.6709 164.954 31.0166 164.093 31.2568C163.237 31.4971 162.229 31.6172 161.069 31.6172C159.921 31.6172 158.919 31.4971 158.063 31.2568C157.208 31.0166 156.546 30.6709 156.077 30.2197C155.608 29.7686 155.374 29.2324 155.374 28.6113C155.374 27.9785 155.605 27.4336 156.068 26.9766C156.531 26.5195 157.19 26.1738 158.046 25.9395C158.907 25.7051 159.915 25.5879 161.069 25.5879ZM161.069 27.249C160.331 27.249 159.704 27.3018 159.188 27.4072C158.679 27.5068 158.286 27.6592 158.011 27.8643C157.741 28.0635 157.606 28.3125 157.606 28.6113C157.606 28.8984 157.741 29.1387 158.011 29.332C158.286 29.5254 158.679 29.6719 159.188 29.7715C159.704 29.8652 160.331 29.9121 161.069 29.9121C161.813 29.9121 162.443 29.8652 162.959 29.7715C163.475 29.6719 163.867 29.5225 164.137 29.3232C164.412 29.124 164.55 28.8867 164.55 28.6113C164.55 28.3125 164.412 28.0635 164.137 27.8643C163.867 27.6592 163.475 27.5068 162.959 27.4072C162.443 27.3018 161.813 27.249 161.069 27.249ZM165.745 18.0996H155.532V16.333H165.745V18.0996ZM168.426 24.5771H153.897V22.7666H168.426V24.5771ZM161.562 23.25H159.338V19.9629H161.562V23.25ZM166.703 17.6426C166.703 18.5098 166.677 19.2598 166.624 19.8926C166.577 20.5195 166.451 21.1992 166.246 21.9316L164.04 21.7119C164.228 20.9736 164.342 20.3203 164.383 19.752C164.43 19.1836 164.456 18.4805 164.462 17.6426V16.333H166.703V17.6426ZM175.053 31.6172H172.75V25.7021H175.053V31.6172ZM180.607 31.6172H178.331V25.7021H180.607V31.6172ZM184.035 26.3262H169.41V24.5156H184.035V26.3262ZM176.679 16.1484C177.821 16.1484 178.832 16.2979 179.711 16.5967C180.596 16.8896 181.281 17.3086 181.768 17.8535C182.26 18.3984 182.506 19.0342 182.506 19.7607C182.506 20.4639 182.26 21.082 181.768 21.6152C181.281 22.1484 180.596 22.5615 179.711 22.8545C178.832 23.1416 177.821 23.2881 176.679 23.2939C175.536 23.2881 174.525 23.1416 173.646 22.8545C172.773 22.5615 172.091 22.1484 171.599 21.6152C171.112 21.082 170.869 20.4639 170.869 19.7607C170.869 19.0342 171.112 18.3984 171.599 17.8535C172.085 17.3086 172.768 16.8896 173.646 16.5967C174.531 16.2979 175.542 16.1484 176.679 16.1484ZM176.679 17.9414C175.964 17.9414 175.343 18.0117 174.815 18.1523C174.288 18.293 173.884 18.501 173.603 18.7764C173.327 19.0459 173.189 19.374 173.189 19.7607C173.189 20.1299 173.327 20.4463 173.603 20.71C173.884 20.9736 174.288 21.1758 174.815 21.3164C175.343 21.4512 175.964 21.5186 176.679 21.5186C177.399 21.5186 178.023 21.4512 178.551 21.3164C179.084 21.1758 179.491 20.9736 179.772 20.71C180.054 20.4463 180.194 20.1299 180.194 19.7607C180.194 19.374 180.054 19.0459 179.772 18.7764C179.491 18.501 179.084 18.293 178.551 18.1523C178.023 18.0117 177.399 17.9414 176.679 17.9414ZM197.597 31.6172H195.382V15.6035H197.597V31.6172ZM199.97 23.7246H197.104V21.8877H199.97V23.7246ZM194.292 19.8047H184.896V18.0029H194.292V19.8047ZM189.634 20.6924C190.413 20.6924 191.113 20.8564 191.734 21.1846C192.355 21.5068 192.842 21.958 193.193 22.5381C193.551 23.1182 193.729 23.7744 193.729 24.5068C193.729 25.2393 193.551 25.8955 193.193 26.4756C192.842 27.0557 192.355 27.5098 191.734 27.8379C191.113 28.1602 190.413 28.3213 189.634 28.3213C188.854 28.3213 188.154 28.1602 187.533 27.8379C186.912 27.5098 186.426 27.0557 186.074 26.4756C185.723 25.8955 185.547 25.2393 185.547 24.5068C185.547 23.7744 185.723 23.1182 186.074 22.5381C186.426 21.958 186.912 21.5068 187.533 21.1846C188.154 20.8564 188.854 20.6924 189.634 20.6924ZM189.634 22.5205C189.265 22.5205 188.931 22.6025 188.632 22.7666C188.339 22.9248 188.107 23.1562 187.938 23.4609C187.773 23.7598 187.691 24.1084 187.691 24.5068C187.691 24.9111 187.773 25.2627 187.938 25.5615C188.107 25.8604 188.339 26.0918 188.632 26.2559C188.931 26.4141 189.265 26.4932 189.634 26.4932C190.015 26.4932 190.352 26.4141 190.645 26.2559C190.938 26.0918 191.163 25.8604 191.321 25.5615C191.485 25.2627 191.567 24.9111 191.567 24.5068C191.567 24.1084 191.485 23.7598 191.321 23.4609C191.163 23.1562 190.938 22.9248 190.645 22.7666C190.352 22.6025 190.015 22.5205 189.634 22.5205ZM190.75 18.6885H188.518V15.8584H190.75V18.6885ZM213.979 31.6172H211.703V15.6035H213.979V31.6172ZM209.189 17.291C209.189 19.0078 208.958 20.5664 208.495 21.9668C208.038 23.3613 207.262 24.6445 206.166 25.8164C205.07 26.9824 203.603 28.002 201.763 28.875L200.585 27.082C202.126 26.3555 203.362 25.5381 204.294 24.6299C205.226 23.7217 205.902 22.7021 206.324 21.5713C206.746 20.4404 206.957 19.1455 206.957 17.6865V17.291H209.189ZM207.985 19.0576H201.438V17.291H207.985V19.0576Z" fill="white"/>
</svg>
