<svg width="250" height="410" viewBox="0 0 250 410" fill="none" xmlns="http://www.w3.org/2000/svg">
<g clip-path="url(#clip0_1235_3116)">
<g filter="url(#filter0_b_1235_3116)">
<rect width="304" height="547" fill="#7EC8FF"/>
</g>
<path d="M123.312 83.6611H121.036V67.6035H123.312V83.6611ZM114.62 68.7373C115.423 68.7373 116.144 68.9717 116.782 69.4404C117.427 69.9092 117.928 70.5742 118.285 71.4355C118.648 72.2969 118.83 73.2988 118.83 74.4414C118.83 75.5898 118.648 76.5947 118.285 77.4561C117.928 78.3174 117.427 78.9824 116.782 79.4512C116.144 79.9141 115.423 80.1455 114.62 80.1455C113.806 80.1455 113.076 79.9141 112.432 79.4512C111.793 78.9824 111.292 78.3174 110.929 77.4561C110.565 76.5947 110.384 75.5898 110.384 74.4414C110.384 73.2988 110.565 72.2969 110.929 71.4355C111.292 70.5742 111.793 69.9092 112.432 69.4404C113.076 68.9717 113.806 68.7373 114.62 68.7373ZM114.62 70.7676C114.21 70.7617 113.847 70.9023 113.53 71.1895C113.22 71.4707 112.979 71.8896 112.81 72.4463C112.646 72.9971 112.563 73.6621 112.563 74.4414C112.563 75.2207 112.646 75.8857 112.81 76.4365C112.979 76.9873 113.22 77.4062 113.53 77.6934C113.847 77.9746 114.21 78.1152 114.62 78.1152C115.024 78.1152 115.382 77.9746 115.692 77.6934C116.003 77.4062 116.243 76.9873 116.413 76.4365C116.583 75.8857 116.668 75.2207 116.668 74.4414C116.668 73.6621 116.583 72.9971 116.413 72.4463C116.243 71.8896 116.003 71.4707 115.692 71.1895C115.388 70.9023 115.03 70.7617 114.62 70.7676ZM140.091 77.4648H125.466V75.6982H140.091V77.4648ZM138.324 72.1826H129.518V73.9404H127.285V70.583H136.074V69.6514H127.259V67.9111H138.324V72.1826ZM138.623 74.8193H127.285V73.123H138.623V74.8193ZM138.386 83.4414H127.338V78.4492H138.386V83.4414ZM129.535 81.6396H136.171V80.2334H129.535V81.6396Z" fill="#FFF613"/>
<path d="M118.08 96.1309H116.973V89.8906H118.08V96.1309ZM119.609 93.459H117.77V92.5449H119.609V93.459ZM115.203 90.6406C115.203 91.5312 115.006 92.3438 114.611 93.0781C114.221 93.8125 113.656 94.4453 112.918 94.9766C112.184 95.5039 111.303 95.916 110.275 96.2129L109.812 95.3105C110.691 95.0605 111.445 94.7305 112.074 94.3203C112.707 93.9102 113.189 93.4375 113.521 92.9023C113.854 92.3672 114.02 91.791 114.02 91.1738V90.6406H115.203ZM114.67 91.5488H110.287V90.6406H114.67V91.5488ZM114.723 96.248C115.426 96.248 116.039 96.332 116.562 96.5C117.09 96.6641 117.494 96.9004 117.775 97.209C118.057 97.5176 118.197 97.8848 118.197 98.3105C118.197 98.7324 118.057 99.0996 117.775 99.4121C117.494 99.7246 117.09 99.9629 116.562 100.127C116.039 100.295 115.426 100.379 114.723 100.379C114.027 100.379 113.416 100.295 112.889 100.127C112.365 99.9629 111.961 99.7246 111.676 99.4121C111.391 99.0996 111.248 98.7324 111.248 98.3105C111.248 97.8848 111.391 97.5176 111.676 97.209C111.961 96.9004 112.365 96.6641 112.889 96.5C113.416 96.332 114.027 96.248 114.723 96.248ZM114.723 97.127C114.242 97.123 113.822 97.168 113.463 97.2617C113.104 97.3555 112.828 97.4922 112.637 97.6719C112.445 97.8516 112.35 98.0645 112.35 98.3105C112.35 98.5527 112.445 98.7637 112.637 98.9434C112.828 99.1191 113.104 99.2559 113.463 99.3535C113.822 99.4512 114.242 99.5 114.723 99.5C115.211 99.5 115.633 99.4512 115.988 99.3535C116.348 99.2559 116.625 99.1191 116.82 98.9434C117.016 98.7637 117.113 98.5527 117.113 98.3105C117.113 98.0645 117.016 97.8516 116.82 97.6719C116.625 97.4922 116.348 97.3555 115.988 97.2617C115.633 97.168 115.211 97.123 114.723 97.127ZM129.799 96.7871H120.189V95.8613H129.799V96.7871ZM125.516 100.396H124.42V96.4238H125.516V100.396ZM124.971 90.2891C125.709 90.2891 126.361 90.3848 126.928 90.5762C127.494 90.7637 127.932 91.0352 128.24 91.3906C128.553 91.7422 128.709 92.1562 128.709 92.6328C128.709 93.0898 128.553 93.4922 128.24 93.8398C127.932 94.1875 127.494 94.457 126.928 94.6484C126.361 94.8359 125.709 94.9297 124.971 94.9297C124.232 94.9297 123.58 94.8359 123.014 94.6484C122.451 94.457 122.014 94.1875 121.701 93.8398C121.389 93.4922 121.232 93.0898 121.232 92.6328C121.232 92.1562 121.389 91.7422 121.701 91.3906C122.014 91.0352 122.451 90.7637 123.014 90.5762C123.58 90.3848 124.232 90.2891 124.971 90.2891ZM124.971 91.1914C124.451 91.1914 123.996 91.248 123.605 91.3613C123.215 91.4746 122.912 91.6406 122.697 91.8594C122.486 92.0781 122.381 92.3359 122.381 92.6328C122.381 92.918 122.486 93.168 122.697 93.3828C122.912 93.5938 123.215 93.7578 123.605 93.875C123.996 93.9883 124.451 94.0449 124.971 94.0449C125.49 94.0449 125.947 93.9883 126.342 93.875C126.736 93.7578 127.039 93.5938 127.25 93.3828C127.465 93.168 127.572 92.918 127.572 92.6328C127.572 92.3359 127.465 92.0781 127.25 91.8594C127.039 91.6406 126.736 91.4746 126.342 91.3613C125.947 91.248 125.49 91.1914 124.971 91.1914ZM139.326 97.9062H138.213V89.9023H139.326V97.9062ZM138.658 93.5469H136.531V92.6387H138.658V93.5469ZM138.658 95.7441H136.531V94.8477H138.658V95.7441ZM136.49 92.0176H130.59V91.127H136.49V92.0176ZM133.578 92.5273C134.047 92.5273 134.467 92.6113 134.838 92.7793C135.209 92.9473 135.496 93.1855 135.699 93.4941C135.906 93.7988 136.01 94.1523 136.01 94.5547C136.01 94.9492 135.906 95.3008 135.699 95.6094C135.496 95.9141 135.209 96.1523 134.838 96.3242C134.467 96.4961 134.047 96.582 133.578 96.582C133.113 96.582 132.699 96.4961 132.336 96.3242C131.973 96.1523 131.688 95.9141 131.48 95.6094C131.277 95.3008 131.176 94.9492 131.176 94.5547C131.176 94.1562 131.277 93.8027 131.48 93.4941C131.688 93.1855 131.973 92.9473 132.336 92.7793C132.699 92.6113 133.113 92.5273 133.578 92.5273ZM133.578 93.4004C133.316 93.4004 133.08 93.4473 132.869 93.541C132.658 93.6348 132.496 93.7695 132.383 93.9453C132.27 94.1211 132.213 94.3242 132.213 94.5547C132.213 94.7812 132.27 94.9824 132.383 95.1582C132.496 95.334 132.656 95.4707 132.863 95.5684C133.074 95.6621 133.312 95.709 133.578 95.709C133.852 95.709 134.092 95.6621 134.299 95.5684C134.506 95.4707 134.668 95.334 134.785 95.1582C134.902 94.9824 134.961 94.7812 134.961 94.5547C134.961 94.3242 134.902 94.1211 134.785 93.9453C134.668 93.7695 134.506 93.6348 134.299 93.541C134.092 93.4473 133.852 93.4004 133.578 93.4004ZM134.146 91.6895H133.039V89.8848H134.146V91.6895ZM139.561 100.186H132.465V99.2656H139.561V100.186ZM133.59 99.6992H132.465V97.209H133.59V99.6992Z" fill="white"/>
<path d="M106.289 155.589H102.492V153.77H106.289V155.589ZM107.344 161.319H105.111V149.639H107.344V161.319ZM107.73 165.345H96.7266V163.534H107.73V165.345ZM98.9766 164.589H96.7266V160.291H98.9766V164.589ZM99.4424 152.741C99.4424 153.772 99.2754 154.739 98.9414 155.642C98.6133 156.544 98.1094 157.335 97.4297 158.015C96.7559 158.688 95.9238 159.192 94.9336 159.526L93.7734 157.716C94.6172 157.446 95.3262 157.054 95.9004 156.538C96.4805 156.017 96.9111 155.434 97.1924 154.789C97.4736 154.139 97.6143 153.456 97.6143 152.741V151.704H99.4424V152.741ZM99.8994 152.759C99.8994 153.409 100.034 154.039 100.304 154.648C100.573 155.252 100.98 155.8 101.525 156.292C102.076 156.784 102.762 157.162 103.582 157.426L102.475 159.201C101.508 158.885 100.693 158.401 100.031 157.751C99.375 157.101 98.8857 156.348 98.5635 155.492C98.2412 154.637 98.0801 153.726 98.0801 152.759V151.704H99.8994V152.759ZM103.09 152.513H94.4062V150.711H103.09V152.513ZM115.43 161.68H113.171V159.069H115.43V161.68ZM122.215 165.617H119.947V149.604H122.215V165.617ZM124.298 157.979H121.441V156.134H124.298V157.979ZM109.233 161.1C111.173 161.105 112.951 161.082 114.568 161.029C116.186 160.971 117.715 160.842 119.156 160.643L119.306 162.277C118.257 162.471 117.164 162.617 116.027 162.717C114.896 162.811 113.836 162.872 112.846 162.901C111.861 162.925 110.757 162.937 109.532 162.937L109.233 161.1ZM119.024 153.154H109.532V151.396H119.024V153.154ZM114.322 153.796C115.084 153.796 115.761 153.922 116.353 154.174C116.944 154.426 117.407 154.78 117.741 155.237C118.081 155.688 118.251 156.21 118.251 156.802C118.251 157.382 118.081 157.9 117.741 158.357C117.407 158.809 116.944 159.163 116.353 159.421C115.761 159.673 115.084 159.799 114.322 159.799C113.555 159.799 112.872 159.673 112.274 159.421C111.677 159.163 111.211 158.809 110.877 158.357C110.549 157.906 110.385 157.388 110.385 156.802C110.385 156.21 110.549 155.688 110.877 155.237C111.211 154.78 111.677 154.426 112.274 154.174C112.872 153.922 113.555 153.796 114.322 153.796ZM114.322 155.492C113.959 155.492 113.64 155.545 113.364 155.65C113.095 155.75 112.884 155.899 112.731 156.099C112.585 156.292 112.512 156.526 112.512 156.802C112.512 157.071 112.585 157.306 112.731 157.505C112.878 157.698 113.089 157.845 113.364 157.944C113.64 158.044 113.959 158.094 114.322 158.094C114.68 158.094 114.993 158.044 115.263 157.944C115.532 157.845 115.74 157.698 115.887 157.505C116.033 157.306 116.106 157.071 116.106 156.802C116.106 156.526 116.033 156.292 115.887 156.099C115.74 155.899 115.532 155.75 115.263 155.65C114.993 155.545 114.68 155.492 114.322 155.492ZM115.43 152.688H113.171V149.7H115.43V152.688ZM136.77 155.677H132.604V153.875H136.77V155.677ZM138.457 161.434H136.225V149.639H138.457V161.434ZM138.8 165.345H127.805V163.534H138.8V165.345ZM130.072 164.562H127.805V160.256H130.072V164.562ZM127.91 153.128H131.057V150.685H133.28V158.911H125.651V150.685H127.91V153.128ZM131.057 157.136V154.842H127.91V157.136H131.057ZM154.471 153.436H141.155V151.643H154.471V153.436ZM155.165 163.991H140.54V162.181H155.165V163.991ZM148.916 162.884H146.692V160.027H148.916V162.884ZM147.809 154.13C148.91 154.124 149.871 154.247 150.691 154.499C151.518 154.745 152.15 155.103 152.59 155.571C153.035 156.034 153.258 156.591 153.258 157.241C153.258 157.892 153.035 158.454 152.59 158.929C152.15 159.397 151.521 159.761 150.7 160.019C149.886 160.271 148.922 160.399 147.809 160.405C146.689 160.399 145.717 160.271 144.891 160.019C144.07 159.767 143.44 159.403 143.001 158.929C142.562 158.454 142.342 157.892 142.342 157.241C142.342 156.591 142.562 156.034 143.001 155.571C143.44 155.103 144.07 154.745 144.891 154.499C145.717 154.247 146.689 154.124 147.809 154.13ZM147.809 155.879C147.105 155.879 146.52 155.929 146.051 156.028C145.588 156.122 145.236 156.271 144.996 156.477C144.762 156.676 144.645 156.931 144.645 157.241C144.645 157.546 144.762 157.801 144.996 158.006C145.236 158.205 145.588 158.354 146.051 158.454C146.52 158.554 147.105 158.606 147.809 158.612C148.5 158.606 149.077 158.554 149.54 158.454C150.003 158.354 150.354 158.205 150.595 158.006C150.835 157.801 150.955 157.546 150.955 157.241C150.955 156.931 150.835 156.676 150.595 156.477C150.354 156.271 150 156.122 149.531 156.028C149.062 155.929 148.488 155.879 147.809 155.879ZM148.916 152.759H146.692V149.779H148.916V152.759Z" fill="#FFF613"/>
<path d="M89.1445 181.117C88.4922 181.117 87.9336 180.947 87.4688 180.607C87.0039 180.268 86.6484 179.771 86.4023 179.119C86.1562 178.467 86.0332 177.68 86.0332 176.758C86.0332 175.844 86.1562 175.061 86.4023 174.408C86.6484 173.756 87.0059 173.258 87.4746 172.914C87.9434 172.57 88.5 172.398 89.1445 172.398C89.7891 172.398 90.3457 172.57 90.8145 172.914C91.2832 173.258 91.6406 173.756 91.8867 174.408C92.1328 175.061 92.2559 175.844 92.2559 176.758C92.2559 177.68 92.1328 178.467 91.8867 179.119C91.6445 179.771 91.2891 180.268 90.8203 180.607C90.3555 180.947 89.7969 181.117 89.1445 181.117ZM89.1445 180.01C89.5234 180.01 89.8496 179.885 90.123 179.635C90.4004 179.385 90.6113 179.018 90.7559 178.533C90.9004 178.045 90.9707 177.453 90.9668 176.758C90.9668 176.062 90.8945 175.471 90.75 174.982C90.6055 174.494 90.3965 174.123 90.123 173.869C89.8496 173.615 89.5234 173.488 89.1445 173.488C88.7656 173.488 88.4395 173.615 88.166 173.869C87.8926 174.123 87.6816 174.494 87.5332 174.982C87.3848 175.471 87.3105 176.062 87.3105 176.758C87.3105 177.453 87.3828 178.045 87.5273 178.533C87.6719 179.018 87.8828 179.385 88.1602 179.635C88.4375 179.885 88.7656 180.01 89.1445 180.01ZM96.8203 181H95.5195V173.811H95.4727L93.4512 175.135V173.898L95.5547 172.516H96.8203V181ZM101.93 181.117C101.277 181.117 100.719 180.947 100.254 180.607C99.7891 180.268 99.4336 179.771 99.1875 179.119C98.9414 178.467 98.8184 177.68 98.8184 176.758C98.8184 175.844 98.9414 175.061 99.1875 174.408C99.4336 173.756 99.791 173.258 100.26 172.914C100.729 172.57 101.285 172.398 101.93 172.398C102.574 172.398 103.131 172.57 103.6 172.914C104.068 173.258 104.426 173.756 104.672 174.408C104.918 175.061 105.041 175.844 105.041 176.758C105.041 177.68 104.918 178.467 104.672 179.119C104.43 179.771 104.074 180.268 103.605 180.607C103.141 180.947 102.582 181.117 101.93 181.117ZM101.93 180.01C102.309 180.01 102.635 179.885 102.908 179.635C103.186 179.385 103.396 179.018 103.541 178.533C103.686 178.045 103.756 177.453 103.752 176.758C103.752 176.062 103.68 175.471 103.535 174.982C103.391 174.494 103.182 174.123 102.908 173.869C102.635 173.615 102.309 173.488 101.93 173.488C101.551 173.488 101.225 173.615 100.951 173.869C100.678 174.123 100.467 174.494 100.318 174.982C100.17 175.471 100.096 176.062 100.096 176.758C100.096 177.453 100.168 178.045 100.312 178.533C100.457 179.018 100.668 179.385 100.945 179.635C101.223 179.885 101.551 180.01 101.93 180.01ZM110.227 173.682V173.623H105.85V172.516H111.562V173.664L107.783 181H106.441L110.227 173.682ZM115.746 181.117C115.172 181.109 114.645 180.977 114.164 180.719C113.688 180.461 113.297 180.029 112.992 179.424C112.691 178.818 112.541 178.023 112.541 177.039C112.541 176.066 112.676 175.232 112.945 174.537C113.215 173.838 113.598 173.307 114.094 172.943C114.59 172.58 115.176 172.398 115.852 172.398C116.367 172.398 116.826 172.498 117.229 172.697C117.635 172.893 117.965 173.166 118.219 173.518C118.477 173.869 118.639 174.271 118.705 174.725H117.428C117.365 174.486 117.264 174.277 117.123 174.098C116.986 173.914 116.811 173.773 116.596 173.676C116.381 173.578 116.133 173.529 115.852 173.529C115.418 173.529 115.047 173.65 114.738 173.893C114.43 174.131 114.193 174.479 114.029 174.936C113.865 175.393 113.781 175.941 113.777 176.582H113.871C114.027 176.344 114.215 176.139 114.434 175.967C114.656 175.795 114.906 175.664 115.184 175.574C115.461 175.48 115.75 175.434 116.051 175.434C116.551 175.434 117.01 175.555 117.428 175.797C117.85 176.035 118.18 176.365 118.418 176.787C118.66 177.209 118.781 177.688 118.781 178.223C118.781 178.77 118.654 179.264 118.4 179.705C118.146 180.146 117.789 180.492 117.328 180.742C116.867 180.992 116.34 181.117 115.746 181.117ZM115.74 180.039C116.076 180.039 116.379 179.959 116.648 179.799C116.922 179.639 117.137 179.422 117.293 179.148C117.453 178.871 117.533 178.572 117.533 178.252C117.533 177.92 117.457 177.619 117.305 177.35C117.152 177.08 116.941 176.869 116.672 176.717C116.402 176.561 116.098 176.482 115.758 176.482C115.426 176.482 115.121 176.564 114.844 176.729C114.566 176.889 114.346 177.105 114.182 177.379C114.021 177.648 113.938 177.941 113.93 178.258C113.934 178.566 114.014 178.857 114.17 179.131C114.33 179.404 114.547 179.625 114.82 179.793C115.094 179.957 115.4 180.039 115.74 180.039ZM123.041 181.117C122.514 181.117 122.033 181.018 121.6 180.818C121.17 180.615 120.828 180.336 120.574 179.98C120.324 179.625 120.189 179.225 120.17 178.779H121.418C121.445 179.021 121.533 179.236 121.682 179.424C121.834 179.611 122.027 179.762 122.262 179.875C122.5 179.984 122.76 180.039 123.041 180.039C123.377 180.039 123.678 179.963 123.943 179.811C124.213 179.658 124.424 179.449 124.576 179.184C124.729 178.914 124.805 178.615 124.805 178.287C124.805 177.939 124.727 177.633 124.57 177.367C124.418 177.098 124.201 176.885 123.92 176.729C123.643 176.572 123.33 176.494 122.982 176.494C122.631 176.486 122.33 176.543 122.08 176.664C121.83 176.785 121.633 176.977 121.488 177.238H120.275L120.826 172.516H125.631V173.623H121.898L121.605 175.99H121.682C121.869 175.822 122.104 175.686 122.385 175.58C122.67 175.475 122.969 175.422 123.281 175.422C123.809 175.422 124.283 175.543 124.705 175.785C125.131 176.023 125.463 176.359 125.701 176.793C125.943 177.223 126.062 177.709 126.059 178.252C126.062 178.799 125.934 179.291 125.672 179.729C125.414 180.162 125.055 180.502 124.594 180.748C124.137 180.994 123.619 181.117 123.041 181.117ZM130.5 181.117C129.926 181.109 129.398 180.977 128.918 180.719C128.441 180.461 128.051 180.029 127.746 179.424C127.445 178.818 127.295 178.023 127.295 177.039C127.295 176.066 127.43 175.232 127.699 174.537C127.969 173.838 128.352 173.307 128.848 172.943C129.344 172.58 129.93 172.398 130.605 172.398C131.121 172.398 131.58 172.498 131.982 172.697C132.389 172.893 132.719 173.166 132.973 173.518C133.23 173.869 133.393 174.271 133.459 174.725H132.182C132.119 174.486 132.018 174.277 131.877 174.098C131.74 173.914 131.564 173.773 131.35 173.676C131.135 173.578 130.887 173.529 130.605 173.529C130.172 173.529 129.801 173.65 129.492 173.893C129.184 174.131 128.947 174.479 128.783 174.936C128.619 175.393 128.535 175.941 128.531 176.582H128.625C128.781 176.344 128.969 176.139 129.188 175.967C129.41 175.795 129.66 175.664 129.938 175.574C130.215 175.48 130.504 175.434 130.805 175.434C131.305 175.434 131.764 175.555 132.182 175.797C132.604 176.035 132.934 176.365 133.172 176.787C133.414 177.209 133.535 177.688 133.535 178.223C133.535 178.77 133.408 179.264 133.154 179.705C132.9 180.146 132.543 180.492 132.082 180.742C131.621 180.992 131.094 181.117 130.5 181.117ZM130.494 180.039C130.83 180.039 131.133 179.959 131.402 179.799C131.676 179.639 131.891 179.422 132.047 179.148C132.207 178.871 132.287 178.572 132.287 178.252C132.287 177.92 132.211 177.619 132.059 177.35C131.906 177.08 131.695 176.869 131.426 176.717C131.156 176.561 130.852 176.482 130.512 176.482C130.18 176.482 129.875 176.564 129.598 176.729C129.32 176.889 129.1 177.105 128.936 177.379C128.775 177.648 128.691 177.941 128.684 178.258C128.688 178.566 128.768 178.857 128.924 179.131C129.084 179.404 129.301 179.625 129.574 179.793C129.848 179.957 130.154 180.039 130.494 180.039ZM134.9 180.062L137.848 177.092C138.203 176.725 138.477 176.428 138.668 176.201C138.859 175.975 139.002 175.752 139.096 175.533C139.193 175.311 139.242 175.08 139.242 174.842C139.242 174.572 139.174 174.334 139.037 174.127C138.9 173.92 138.713 173.76 138.475 173.646C138.236 173.533 137.969 173.477 137.672 173.477C137.363 173.477 137.092 173.539 136.857 173.664C136.627 173.785 136.447 173.961 136.318 174.191C136.193 174.418 136.131 174.68 136.131 174.977H134.906C134.906 174.469 135.025 174.02 135.264 173.629C135.502 173.238 135.832 172.936 136.254 172.721C136.68 172.506 137.162 172.398 137.701 172.398C138.236 172.398 138.713 172.504 139.131 172.715C139.549 172.922 139.875 173.209 140.109 173.576C140.348 173.939 140.467 174.348 140.467 174.801C140.467 175.125 140.406 175.438 140.285 175.738C140.164 176.039 139.959 176.371 139.67 176.734C139.381 177.098 138.967 177.545 138.428 178.076L136.699 179.828V179.893H140.607V181H134.906L134.9 180.062ZM141.674 178.299L145.412 172.516H146.232V174.051H145.699L143.021 178.182V178.252H148.166V179.342H141.674V178.299ZM145.787 179.031L145.793 178.551V172.516H147.018V181H145.787V179.031ZM152.432 181.117C151.83 181.117 151.291 181.016 150.814 180.812C150.342 180.605 149.973 180.322 149.707 179.963C149.445 179.6 149.314 179.191 149.314 178.738C149.314 178.383 149.391 178.051 149.543 177.742C149.699 177.434 149.912 177.18 150.182 176.98C150.455 176.777 150.756 176.652 151.084 176.605V176.553C150.803 176.486 150.553 176.363 150.334 176.184C150.115 176.004 149.943 175.781 149.818 175.516C149.697 175.25 149.637 174.965 149.637 174.66C149.637 174.23 149.758 173.844 150 173.5C150.246 173.152 150.58 172.883 151.002 172.691C151.428 172.496 151.904 172.398 152.432 172.398C152.959 172.398 153.436 172.496 153.861 172.691C154.287 172.883 154.621 173.152 154.863 173.5C155.109 173.844 155.232 174.23 155.232 174.66C155.232 174.965 155.168 175.25 155.039 175.516C154.914 175.781 154.742 176.004 154.523 176.184C154.309 176.363 154.059 176.486 153.773 176.553V176.605C154.105 176.652 154.404 176.777 154.67 176.98C154.939 177.18 155.154 177.434 155.314 177.742C155.475 178.051 155.555 178.383 155.555 178.738C155.555 179.191 155.42 179.6 155.15 179.963C154.885 180.322 154.516 180.605 154.043 180.812C153.57 181.016 153.033 181.117 152.432 181.117ZM152.432 180.051C152.795 180.051 153.113 179.992 153.387 179.875C153.66 179.758 153.871 179.592 154.02 179.377C154.168 179.162 154.242 178.918 154.242 178.645C154.242 178.352 154.164 178.092 154.008 177.865C153.852 177.635 153.635 177.455 153.357 177.326C153.084 177.193 152.775 177.127 152.432 177.127C152.088 177.127 151.777 177.193 151.5 177.326C151.223 177.455 151.006 177.635 150.85 177.865C150.697 178.092 150.625 178.352 150.633 178.645C150.625 178.918 150.695 179.162 150.844 179.377C150.992 179.592 151.203 179.758 151.477 179.875C151.75 179.992 152.068 180.051 152.432 180.051ZM152.432 176.119C152.725 176.119 152.988 176.062 153.223 175.949C153.461 175.836 153.645 175.678 153.773 175.475C153.902 175.268 153.967 175.035 153.967 174.777C153.967 174.516 153.902 174.285 153.773 174.086C153.648 173.883 153.469 173.727 153.234 173.617C153 173.508 152.732 173.453 152.432 173.453C152.131 173.453 151.861 173.508 151.623 173.617C151.389 173.727 151.207 173.883 151.078 174.086C150.953 174.285 150.891 174.516 150.891 174.777C150.891 175.035 150.957 175.268 151.09 175.475C151.227 175.678 151.41 175.836 151.641 175.949C151.871 176.062 152.135 176.119 152.432 176.119ZM159.85 181.117C159.248 181.117 158.709 181.016 158.232 180.812C157.76 180.605 157.391 180.322 157.125 179.963C156.863 179.6 156.732 179.191 156.732 178.738C156.732 178.383 156.809 178.051 156.961 177.742C157.117 177.434 157.33 177.18 157.6 176.98C157.873 176.777 158.174 176.652 158.502 176.605V176.553C158.221 176.486 157.971 176.363 157.752 176.184C157.533 176.004 157.361 175.781 157.236 175.516C157.115 175.25 157.055 174.965 157.055 174.66C157.055 174.23 157.176 173.844 157.418 173.5C157.664 173.152 157.998 172.883 158.42 172.691C158.846 172.496 159.322 172.398 159.85 172.398C160.377 172.398 160.854 172.496 161.279 172.691C161.705 172.883 162.039 173.152 162.281 173.5C162.527 173.844 162.65 174.23 162.65 174.66C162.65 174.965 162.586 175.25 162.457 175.516C162.332 175.781 162.16 176.004 161.941 176.184C161.727 176.363 161.477 176.486 161.191 176.553V176.605C161.523 176.652 161.822 176.777 162.088 176.98C162.357 177.18 162.572 177.434 162.732 177.742C162.893 178.051 162.973 178.383 162.973 178.738C162.973 179.191 162.838 179.6 162.568 179.963C162.303 180.322 161.934 180.605 161.461 180.812C160.988 181.016 160.451 181.117 159.85 181.117ZM159.85 180.051C160.213 180.051 160.531 179.992 160.805 179.875C161.078 179.758 161.289 179.592 161.438 179.377C161.586 179.162 161.66 178.918 161.66 178.645C161.66 178.352 161.582 178.092 161.426 177.865C161.27 177.635 161.053 177.455 160.775 177.326C160.502 177.193 160.193 177.127 159.85 177.127C159.506 177.127 159.195 177.193 158.918 177.326C158.641 177.455 158.424 177.635 158.268 177.865C158.115 178.092 158.043 178.352 158.051 178.645C158.043 178.918 158.113 179.162 158.262 179.377C158.41 179.592 158.621 179.758 158.895 179.875C159.168 179.992 159.486 180.051 159.85 180.051ZM159.85 176.119C160.143 176.119 160.406 176.062 160.641 175.949C160.879 175.836 161.062 175.678 161.191 175.475C161.32 175.268 161.385 175.035 161.385 174.777C161.385 174.516 161.32 174.285 161.191 174.086C161.066 173.883 160.887 173.727 160.652 173.617C160.418 173.508 160.15 173.453 159.85 173.453C159.549 173.453 159.279 173.508 159.041 173.617C158.807 173.727 158.625 173.883 158.496 174.086C158.371 174.285 158.309 174.516 158.309 174.777C158.309 175.035 158.375 175.268 158.508 175.475C158.645 175.678 158.828 175.836 159.059 175.949C159.289 176.062 159.553 176.119 159.85 176.119Z" fill="white"/>
<path d="M115.025 243.135H112.784V231.639H115.025V243.135ZM115.465 247.345H104.312V245.534H115.465V247.345ZM106.579 246.272H104.312V241.983H106.579V246.272ZM106.263 232.649C107.077 232.649 107.818 232.822 108.486 233.168C109.16 233.508 109.688 233.988 110.068 234.609C110.449 235.225 110.64 235.913 110.64 236.675C110.64 237.46 110.449 238.16 110.068 238.775C109.688 239.391 109.16 239.874 108.486 240.226C107.818 240.571 107.077 240.744 106.263 240.744C105.448 240.744 104.707 240.571 104.039 240.226C103.377 239.874 102.853 239.391 102.466 238.775C102.079 238.16 101.886 237.46 101.886 236.675C101.886 235.913 102.079 235.225 102.466 234.609C102.853 233.988 103.377 233.508 104.039 233.168C104.707 232.822 105.448 232.649 106.263 232.649ZM106.263 234.601C105.847 234.595 105.472 234.677 105.138 234.847C104.81 235.011 104.549 235.251 104.355 235.567C104.168 235.884 104.074 236.253 104.074 236.675C104.074 237.108 104.168 237.486 104.355 237.809C104.549 238.125 104.81 238.368 105.138 238.538C105.472 238.702 105.847 238.784 106.263 238.784C106.673 238.784 107.039 238.702 107.361 238.538C107.689 238.368 107.947 238.125 108.135 237.809C108.322 237.486 108.416 237.108 108.416 236.675C108.416 236.253 108.322 235.884 108.135 235.567C107.947 235.251 107.689 235.011 107.361 234.847C107.039 234.677 106.673 234.595 106.263 234.601ZM125.194 233.722C125.194 234.882 124.922 235.969 124.377 236.982C123.832 237.996 123.056 238.863 122.048 239.584C121.046 240.299 119.871 240.791 118.523 241.061L117.565 239.197C118.714 238.98 119.716 238.591 120.571 238.028C121.433 237.466 122.089 236.807 122.54 236.051C122.997 235.295 123.226 234.519 123.226 233.722V232.579H125.194V233.722ZM125.607 233.722C125.607 234.524 125.833 235.307 126.284 236.068C126.741 236.83 127.4 237.492 128.262 238.055C129.129 238.611 130.143 238.992 131.303 239.197L130.318 241.061C128.982 240.791 127.811 240.302 126.803 239.593C125.801 238.884 125.03 238.022 124.491 237.009C123.952 235.995 123.683 234.899 123.683 233.722V232.579H125.607V233.722ZM131.83 245.657H117.205V243.82H131.83V245.657ZM134.739 242.194C136.21 242.194 137.493 242.162 138.589 242.098C139.685 242.027 140.807 241.904 141.955 241.729L142.157 243.53C141.032 243.7 139.91 243.817 138.791 243.882C137.672 243.94 136.321 243.976 134.739 243.987H133.386V242.194H134.739ZM140.971 234.768H135.653V242.757H133.386V232.939H140.971V234.768ZM140.725 239.171H135.108V237.404H140.725V239.171ZM145.374 247.617H143.124V231.604H145.374V247.617ZM147.747 239.558H144.882V237.694H147.747V239.558Z" fill="#FFF613"/>
<path d="M105.393 262.73C104.799 262.73 104.275 262.594 103.822 262.32C103.373 262.047 103.025 261.662 102.779 261.166C102.533 260.67 102.41 260.098 102.41 259.449C102.41 258.793 102.533 258.217 102.779 257.721C103.025 257.225 103.373 256.84 103.822 256.566C104.275 256.293 104.799 256.156 105.393 256.156C105.982 256.156 106.502 256.293 106.951 256.566C107.4 256.84 107.746 257.225 107.988 257.721C108.23 258.217 108.352 258.793 108.352 259.449C108.352 260.098 108.23 260.67 107.988 261.166C107.746 261.662 107.4 262.047 106.951 262.32C106.502 262.594 105.982 262.73 105.393 262.73ZM105.393 261.688C105.768 261.688 106.082 261.588 106.336 261.389C106.59 261.186 106.779 260.916 106.904 260.58C107.029 260.24 107.092 259.861 107.092 259.443C107.092 259.025 107.029 258.646 106.904 258.307C106.779 257.967 106.59 257.697 106.336 257.498C106.082 257.295 105.768 257.193 105.393 257.193C105.018 257.193 104.701 257.295 104.443 257.498C104.186 257.697 103.992 257.967 103.863 258.307C103.734 258.646 103.67 259.025 103.67 259.443C103.67 259.861 103.734 260.24 103.863 260.58C103.992 260.916 104.186 261.186 104.443 261.389C104.701 261.588 105.018 261.688 105.393 261.688ZM109.605 256.238H110.812V257.258H110.883C110.996 256.906 111.199 256.633 111.492 256.438C111.785 256.238 112.115 256.139 112.482 256.139C112.678 256.139 112.857 256.15 113.021 256.174V257.369C112.971 257.35 112.879 257.332 112.746 257.316C112.613 257.297 112.486 257.287 112.365 257.287C112.084 257.287 111.828 257.35 111.598 257.475C111.367 257.596 111.186 257.766 111.053 257.984C110.92 258.203 110.854 258.449 110.854 258.723V262.602H109.605V256.238ZM118.506 263.662H113.109V262.602H118.506V263.662ZM120.979 262.602H119.73V256.238H120.926V257.275H121.008C121.164 256.92 121.398 256.645 121.711 256.449C122.027 256.254 122.42 256.156 122.889 256.156C123.326 256.156 123.705 256.248 124.025 256.432C124.35 256.611 124.6 256.881 124.775 257.24C124.955 257.6 125.045 258.037 125.045 258.553V262.602H123.797V258.699C123.797 258.395 123.744 258.133 123.639 257.914C123.533 257.695 123.381 257.529 123.182 257.416C122.982 257.299 122.74 257.24 122.455 257.24C122.166 257.24 121.91 257.303 121.688 257.428C121.465 257.549 121.291 257.73 121.166 257.973C121.041 258.211 120.979 258.496 120.979 258.828V262.602ZM128.953 258.711L130.365 256.238H131.736L129.75 259.414L131.748 262.602H130.395L128.953 260.223L127.541 262.602H126.17L128.133 259.414L126.188 256.238H127.564L128.953 258.711ZM135.844 257.234H132.363V256.238H135.844V257.234ZM134.555 254.715V260.732C134.555 260.959 134.588 261.133 134.654 261.254C134.721 261.375 134.809 261.459 134.918 261.506C135.027 261.553 135.158 261.576 135.311 261.576C135.498 261.576 135.707 261.568 135.938 261.553V262.631C135.715 262.666 135.457 262.684 135.164 262.684C134.824 262.684 134.512 262.621 134.227 262.496C133.945 262.367 133.719 262.176 133.547 261.922C133.379 261.664 133.295 261.352 133.295 260.984V254.715H134.555ZM140.279 262.602H138.979V255.412H138.932L136.91 256.736V255.5L139.014 254.117H140.279V262.602ZM145.658 262.602H144.357V255.412H144.311L142.289 256.736V255.5L144.393 254.117H145.658V262.602Z" fill="white"/>
<path d="M103.371 318.659H100.084V316.84H103.371V318.659ZM103.318 322.641H100.005V320.83H103.318V322.641ZM107.722 328.617H105.612V312.604H107.722V328.617ZM104.382 327.914H102.264V312.981H104.382V327.914ZM100.822 314.52C100.822 316.096 100.635 317.528 100.26 318.817C99.8848 320.106 99.2637 321.293 98.3965 322.377C97.5352 323.455 96.3809 324.425 94.9336 325.286L93.6152 323.713C94.834 322.992 95.8096 322.204 96.542 321.349C97.2803 320.487 97.8164 319.538 98.1504 318.501C98.4902 317.464 98.6602 316.289 98.6602 314.977V314.52H100.822ZM99.4072 316.321H94.5469V314.52H99.4072V316.321ZM114.938 315.416C114.938 316.389 114.768 317.291 114.428 318.123C114.094 318.955 113.59 319.676 112.916 320.285C112.242 320.895 111.416 321.349 110.438 321.647L109.312 319.916C110.156 319.658 110.862 319.301 111.431 318.844C111.999 318.381 112.424 317.856 112.705 317.271C112.986 316.685 113.127 316.066 113.127 315.416V314.537H114.938V315.416ZM115.412 315.416C115.412 316.008 115.544 316.579 115.808 317.13C116.071 317.675 116.479 318.164 117.029 318.598C117.58 319.031 118.266 319.368 119.086 319.608L118.04 321.349C117.056 321.067 116.229 320.637 115.562 320.057C114.899 319.471 114.404 318.782 114.076 317.991C113.748 317.2 113.584 316.342 113.584 315.416V314.537H115.412V315.416ZM118.629 315.732H109.884V313.896H118.629V315.732ZM115.386 324.434H113.145V320.971H115.386V324.434ZM124.298 320.804H121.441V318.932H124.298V320.804ZM122.127 328.617H119.886V312.604H122.127V328.617ZM109.233 323.757C110.687 323.757 111.876 323.751 112.802 323.739C113.728 323.722 114.75 323.684 115.869 323.625C116.988 323.561 118.043 323.458 119.033 323.317L119.174 324.943C118.143 325.131 117.073 325.271 115.966 325.365C114.864 325.459 113.874 325.515 112.995 325.532C112.116 325.55 110.959 325.564 109.523 325.576L109.233 323.757ZM136.77 318.677H132.604V316.875H136.77V318.677ZM138.457 324.434H136.225V312.639H138.457V324.434ZM138.8 328.345H127.805V326.534H138.8V328.345ZM130.072 327.562H127.805V323.256H130.072V327.562ZM127.91 316.128H131.057V313.685H133.28V321.911H125.651V313.685H127.91V316.128ZM131.057 320.136V317.842H127.91V320.136H131.057ZM154.471 316.436H141.155V314.643H154.471V316.436ZM155.165 326.991H140.54V325.181H155.165V326.991ZM148.916 325.884H146.692V323.027H148.916V325.884ZM147.809 317.13C148.91 317.124 149.871 317.247 150.691 317.499C151.518 317.745 152.15 318.103 152.59 318.571C153.035 319.034 153.258 319.591 153.258 320.241C153.258 320.892 153.035 321.454 152.59 321.929C152.15 322.397 151.521 322.761 150.7 323.019C149.886 323.271 148.922 323.399 147.809 323.405C146.689 323.399 145.717 323.271 144.891 323.019C144.07 322.767 143.44 322.403 143.001 321.929C142.562 321.454 142.342 320.892 142.342 320.241C142.342 319.591 142.562 319.034 143.001 318.571C143.44 318.103 144.07 317.745 144.891 317.499C145.717 317.247 146.689 317.124 147.809 317.13ZM147.809 318.879C147.105 318.879 146.52 318.929 146.051 319.028C145.588 319.122 145.236 319.271 144.996 319.477C144.762 319.676 144.645 319.931 144.645 320.241C144.645 320.546 144.762 320.801 144.996 321.006C145.236 321.205 145.588 321.354 146.051 321.454C146.52 321.554 147.105 321.606 147.809 321.612C148.5 321.606 149.077 321.554 149.54 321.454C150.003 321.354 150.354 321.205 150.595 321.006C150.835 320.801 150.955 320.546 150.955 320.241C150.955 319.931 150.835 319.676 150.595 319.477C150.354 319.271 150 319.122 149.531 319.028C149.062 318.929 148.488 318.879 147.809 318.879ZM148.916 315.759H146.692V312.779H148.916V315.759Z" fill="#FFF613"/>
<path d="M105.393 343.73C104.799 343.73 104.275 343.594 103.822 343.32C103.373 343.047 103.025 342.662 102.779 342.166C102.533 341.67 102.41 341.098 102.41 340.449C102.41 339.793 102.533 339.217 102.779 338.721C103.025 338.225 103.373 337.84 103.822 337.566C104.275 337.293 104.799 337.156 105.393 337.156C105.982 337.156 106.502 337.293 106.951 337.566C107.4 337.84 107.746 338.225 107.988 338.721C108.23 339.217 108.352 339.793 108.352 340.449C108.352 341.098 108.23 341.67 107.988 342.166C107.746 342.662 107.4 343.047 106.951 343.32C106.502 343.594 105.982 343.73 105.393 343.73ZM105.393 342.688C105.768 342.688 106.082 342.588 106.336 342.389C106.59 342.186 106.779 341.916 106.904 341.58C107.029 341.24 107.092 340.861 107.092 340.443C107.092 340.025 107.029 339.646 106.904 339.307C106.779 338.967 106.59 338.697 106.336 338.498C106.082 338.295 105.768 338.193 105.393 338.193C105.018 338.193 104.701 338.295 104.443 338.498C104.186 338.697 103.992 338.967 103.863 339.307C103.734 339.646 103.67 340.025 103.67 340.443C103.67 340.861 103.734 341.24 103.863 341.58C103.992 341.916 104.186 342.186 104.443 342.389C104.701 342.588 105.018 342.688 105.393 342.688ZM109.605 337.238H110.812V338.258H110.883C110.996 337.906 111.199 337.633 111.492 337.438C111.785 337.238 112.115 337.139 112.482 337.139C112.678 337.139 112.857 337.15 113.021 337.174V338.369C112.971 338.35 112.879 338.332 112.746 338.316C112.613 338.297 112.486 338.287 112.365 338.287C112.084 338.287 111.828 338.35 111.598 338.475C111.367 338.596 111.186 338.766 111.053 338.984C110.92 339.203 110.854 339.449 110.854 339.723V343.602H109.605V337.238ZM118.506 344.662H113.109V343.602H118.506V344.662ZM120.979 343.602H119.73V337.238H120.926V338.275H121.008C121.164 337.92 121.398 337.645 121.711 337.449C122.027 337.254 122.42 337.156 122.889 337.156C123.326 337.156 123.705 337.248 124.025 337.432C124.35 337.611 124.6 337.881 124.775 338.24C124.955 338.6 125.045 339.037 125.045 339.553V343.602H123.797V339.699C123.797 339.395 123.744 339.133 123.639 338.914C123.533 338.695 123.381 338.529 123.182 338.416C122.982 338.299 122.74 338.24 122.455 338.24C122.166 338.24 121.91 338.303 121.688 338.428C121.465 338.549 121.291 338.73 121.166 338.973C121.041 339.211 120.979 339.496 120.979 339.828V343.602ZM128.953 339.711L130.365 337.238H131.736L129.75 340.414L131.748 343.602H130.395L128.953 341.223L127.541 343.602H126.17L128.133 340.414L126.188 337.238H127.564L128.953 339.711ZM135.844 338.234H132.363V337.238H135.844V338.234ZM134.555 335.715V341.732C134.555 341.959 134.588 342.133 134.654 342.254C134.721 342.375 134.809 342.459 134.918 342.506C135.027 342.553 135.158 342.576 135.311 342.576C135.498 342.576 135.707 342.568 135.938 342.553V343.631C135.715 343.666 135.457 343.684 135.164 343.684C134.824 343.684 134.512 343.621 134.227 343.496C133.945 343.367 133.719 343.176 133.547 342.922C133.379 342.664 133.295 342.352 133.295 341.984V335.715H134.555ZM140.279 343.602H138.979V336.412H138.932L136.91 337.736V336.5L139.014 335.117H140.279V343.602ZM145.658 343.602H144.357V336.412H144.311L142.289 337.736V336.5L144.393 335.117H145.658V343.602Z" fill="white"/>
</g>
<defs>
<filter id="filter0_b_1235_3116" x="-4" y="-4" width="312" height="555" filterUnits="userSpaceOnUse" color-interpolation-filters="sRGB">
<feFlood flood-opacity="0" result="BackgroundImageFix"/>
<feGaussianBlur in="BackgroundImageFix" stdDeviation="2"/>
<feComposite in2="SourceAlpha" operator="in" result="effect1_backgroundBlur_1235_3116"/>
<feBlend mode="normal" in="SourceGraphic" in2="effect1_backgroundBlur_1235_3116" result="shape"/>
</filter>
<clipPath id="clip0_1235_3116">
<rect width="250" height="409.539" rx="10" fill="white"/>
</clipPath>
</defs>
</svg>
