<svg width="187" height="206" viewBox="0 0 187 206" fill="none" xmlns="http://www.w3.org/2000/svg">
<path d="M33.9193 153.824H40.0153V198.272H33.9193V153.824ZM28.1113 170.96H35.5033V176.048H28.1113V170.96ZM23.9833 154.592H29.9353V196.16H23.9833V154.592ZM3.67925 158.72H10.0633V184.4H3.67925V158.72ZM3.67925 182H6.75125C11.0233 182 16.0153 181.76 21.5353 180.704L22.1593 186.176C16.3513 187.232 11.2633 187.472 6.75125 187.472H3.67925V182ZM80.516 164.576H88.964V169.76H80.516V164.576ZM87.236 153.824H93.62V180.224H87.236V153.824ZM78.548 181.184C87.956 181.184 93.764 184.4 93.764 189.776C93.764 195.2 87.956 198.32 78.548 198.32C69.14 198.32 63.332 195.2 63.332 189.776C63.332 184.4 69.14 181.184 78.548 181.184ZM78.548 186.032C72.788 186.032 69.716 187.232 69.716 189.776C69.716 192.272 72.788 193.472 78.548 193.472C84.356 193.472 87.428 192.272 87.428 189.776C87.428 187.232 84.356 186.032 78.548 186.032ZM66.692 158.288H71.876V161.072C71.876 169.568 67.94 177.344 59.444 180.224L56.18 175.184C63.524 172.688 66.692 166.784 66.692 161.072V158.288ZM68.036 158.288H73.172V161.072C73.172 166.304 76.196 171.728 83.204 174.08L80.084 179.12C71.828 176.384 68.036 168.992 68.036 161.072V158.288ZM57.908 156.512H81.812V161.6H57.908V156.512ZM100.624 187.952H140.848V193.136H100.624V187.952ZM117.472 178.448H123.856V189.2H117.472V178.448ZM104.848 156.656H111.184V163.472H130.144V156.656H136.48V179.792H104.848V156.656ZM111.184 168.464V174.704H130.144V168.464H111.184ZM144.733 173.744H185.005V178.4H144.733V173.744ZM149.245 180.608H180.205V191.168H155.677V194.96H149.341V187.136H173.917V184.928H149.245V180.608ZM149.341 193.616H181.453V197.936H149.341V193.616ZM149.677 154.592H180.109V165.056H156.061V168.704H149.725V161.072H173.821V158.864H149.677V154.592ZM149.725 167.36H180.925V171.68H149.725V167.36Z" fill="#F5F5F5"/>
<path d="M29 128.96H157V0.959999H29V128.96Z" fill="black"/>
</svg>
