<svg width="232" height="198" viewBox="0 0 232 198" fill="none" xmlns="http://www.w3.org/2000/svg">
<path d="M30.9331 145.824H37.3651V177.648H30.9331V145.824ZM35.5411 158.208H43.2691V163.44H35.5411V158.208ZM18.5491 149.136H25.3651C25.3651 161.232 17.9731 169.536 4.72513 173.376L2.03712 168.288C12.9331 165.312 18.5491 159.36 18.5491 152.304V149.136ZM3.95713 149.136H22.0051V154.272H3.95713V149.136ZM8.61313 184.416H38.8531V189.504H8.61313V184.416ZM8.61313 174.432H15.0451V186.672H8.61313V174.432ZM77.3454 145.824H83.7294V178.56H77.3454V145.824ZM47.6334 148.992H71.1054V154.08H47.6334V148.992ZM47.1534 173.28L46.5294 168.048C53.6814 168.048 63.6654 167.952 71.6814 167.04L72.0174 171.696C63.7614 173.088 54.2094 173.28 47.1534 173.28ZM51.1374 153.456H57.2814V168.672H51.1374V153.456ZM61.4574 153.456H67.5534V168.672H61.4574V153.456ZM71.9694 153.6H80.8014V158.688H71.9694V153.6ZM71.9694 162.528H80.8014V167.664H71.9694V162.528ZM54.3534 184.416H84.7374V189.504H54.3534V184.416ZM54.3534 176.16H60.7854V188.256H54.3534V176.16ZM119.294 145.872H125.678V179.088H119.294V145.872ZM123.854 159.408H131.582V164.64H123.854V159.408ZM90.6856 150.48H116.846V155.472H90.6856V150.48ZM103.79 157.056C110.174 157.056 114.686 160.56 114.686 165.648C114.686 170.736 110.174 174.192 103.79 174.192C97.3576 174.192 92.8456 170.736 92.8456 165.648C92.8456 160.56 97.3576 157.056 103.79 157.056ZM103.79 161.904C100.958 161.904 98.9896 163.248 98.9896 165.648C98.9896 168.048 100.958 169.344 103.79 169.344C106.622 169.344 108.59 168.048 108.59 165.648C108.59 163.248 106.622 161.904 103.79 161.904ZM100.574 145.776H106.958V152.928H100.574V145.776ZM97.0216 184.416H127.262V189.504H97.0216V184.416ZM97.0216 176.592H103.406V186.624H97.0216V176.592ZM165.026 173.472C174.626 173.472 180.77 176.64 180.77 181.92C180.77 187.104 174.626 190.272 165.026 190.272C155.426 190.272 149.282 187.104 149.282 181.92C149.282 176.64 155.426 173.472 165.026 173.472ZM165.026 178.272C159.026 178.272 155.618 179.52 155.618 181.92C155.618 184.272 159.026 185.472 165.026 185.472C171.026 185.472 174.434 184.272 174.434 181.92C174.434 179.52 171.026 178.272 165.026 178.272ZM149.762 147.792H177.89V152.832H149.762V147.792ZM145.25 165.648H185.282V170.736H145.25V165.648ZM160.082 157.92H166.418V166.944H160.082V157.92ZM174.194 147.792H180.53V151.44C180.53 154.944 180.53 158.736 179.33 163.344L172.994 162.672C174.194 158.112 174.194 154.896 174.194 151.44V147.792ZM198.383 173.904H204.911V190.272H198.383V173.904ZM213.743 173.904H220.271V190.272H213.743V173.904ZM189.311 170.544H229.583V175.68H189.311V170.544ZM209.327 147.312C218.831 147.312 225.407 151.2 225.407 157.296C225.407 163.296 218.831 167.184 209.327 167.184C199.871 167.184 193.295 163.296 193.295 157.296C193.295 151.2 199.871 147.312 209.327 147.312ZM209.327 152.4C203.519 152.4 199.823 154.128 199.823 157.296C199.823 160.416 203.519 162.144 209.327 162.144C215.183 162.144 218.831 160.416 218.831 157.296C218.831 154.128 215.183 152.4 209.327 152.4Z" fill="#F5F5F5"/>
<path d="M52 128.96H180V0.959999H52V128.96Z" fill="black"/>
</svg>
