<svg width="276" height="187" viewBox="0 0 276 187" fill="none" xmlns="http://www.w3.org/2000/svg">
<path d="M35.463 151.624H43.287V156.856H35.463V151.624ZM30.711 134.776H37.143V179.224H30.711V134.776ZM3.639 139.048H10.023V166.648H3.639V139.048ZM3.639 163.096H7.479C13.815 163.096 20.679 162.664 27.831 161.224L28.503 166.456C21.159 167.992 14.007 168.376 7.479 168.376H3.639V163.096ZM47.7473 138.472H68.9153V159.928H47.7473V138.472ZM62.6273 143.512H54.0353V154.888H62.6273V143.512ZM75.0593 134.824H81.4433V167.224H75.0593V134.824ZM79.6193 147.64H87.3473V152.872H79.6193V147.64ZM52.7873 173.416H83.0273V178.504H52.7873V173.416ZM52.7873 164.056H59.1713V175.96H52.7873V164.056ZM104.912 137.752C111.92 137.752 117.152 142.312 117.152 148.696C117.152 155.128 111.92 159.688 104.912 159.688C97.9515 159.688 92.6235 155.128 92.6235 148.696C92.6235 142.312 97.9515 137.752 104.912 137.752ZM104.912 143.224C101.504 143.224 98.9115 145.24 98.9115 148.696C98.9115 152.2 101.504 154.216 104.912 154.216C108.32 154.216 110.912 152.2 110.912 148.696C110.912 145.24 108.32 143.224 104.912 143.224ZM121.328 134.776H127.712V179.368H121.328V134.776ZM91.5675 170.344L90.7995 165.208C98.6235 165.208 109.52 165.112 118.88 163.72L119.36 168.328C109.712 170.248 99.2475 170.344 91.5675 170.344ZM161.876 139.096H168.116C168.116 152.824 164.852 164.248 148.292 172.648L144.884 167.8C158.708 160.84 161.876 152.344 161.876 139.864V139.096ZM147.62 139.096H165.668V144.136H147.62V139.096ZM162.02 149.992V154.888L146.084 156.424L145.316 150.952L162.02 149.992ZM173.492 134.776H179.924V179.224H173.492V134.776ZM178.244 151.768H186.068V157H178.244V151.768ZM193.937 155.32H225.185V160.408H193.937V155.32ZM189.281 168.712H229.505V173.944H189.281V168.712ZM193.937 138.472H224.849V143.656H200.273V157.432H193.937V138.472ZM233.437 169.192H273.661V174.376H233.437V169.192ZM250.285 160.792H256.669V171.304H250.285V160.792ZM237.949 137.704H269.149V152.488H244.381V159.976H238.045V147.496H262.813V142.744H237.949V137.704ZM238.045 157.432H270.157V162.568H238.045V157.432Z" fill="#F5F5F5"/>
<path d="M74 128.96H202V0.959999H74V128.96Z" fill="black"/>
</svg>
