<svg width="244" height="198" viewBox="0 0 244 198" fill="none" xmlns="http://www.w3.org/2000/svg">
<path d="M14.2136 166.608H20.5496V174.192H14.2136V166.608ZM8.64556 173.328H14.9816V176.976H32.7416V173.328H39.0776V189.792H8.64556V173.328ZM14.9816 181.776V184.8H32.7416V181.776H14.9816ZM32.6936 145.824H39.0776V171.456H32.6936V145.824ZM2.83756 169.584L2.11756 164.544C10.2776 164.544 20.9816 164.496 30.3416 163.296L30.7256 167.808C21.1736 169.488 10.8536 169.584 2.83756 169.584ZM13.6856 146.976H18.7736V148.704C18.7736 155.424 14.7896 160.944 6.34156 162.768L3.60556 157.968C10.6616 156.48 13.6856 152.688 13.6856 148.704V146.976ZM15.1736 146.976H20.3096V148.704C20.3096 152.448 23.3816 156 30.1976 157.248L27.5576 162.096C19.2536 160.368 15.1736 155.136 15.1736 148.704V146.976ZM50.3058 149.568H78.4818V154.704H50.3058V149.568ZM46.2258 179.76H86.4018V184.944H46.2258V179.76ZM60.4338 164.496H66.8178V182.304H60.4338V164.496ZM76.1778 149.568H82.5618V153.84C82.5618 159.408 82.5618 165.648 80.7858 175.152L74.4018 174.432C76.1778 165.6 76.1778 159.168 76.1778 153.84V149.568ZM99.5618 181.227L99.4084 183.119C99.272 184.687 98.9936 186.216 98.5732 187.705C98.1641 189.205 97.7266 190.551 97.2607 191.744C96.7947 192.938 96.4254 193.864 96.1527 194.523H90.9027C91.0845 193.864 91.3288 192.938 91.6357 191.744C91.9538 190.551 92.2493 189.205 92.522 187.705C92.7947 186.205 92.9482 184.682 92.9822 183.136L93.0163 181.227H99.5618ZM143.686 145.824H149.974V190.272H143.686V145.824ZM146.518 162.24H154.342V167.472H146.518V162.24ZM113.59 149.856H118.822V160.08H121.462V149.856H126.598V180H113.59V149.856ZM118.822 165.072V174.864H121.462V165.072H118.822ZM128.326 149.856H133.462V160.08H136.15V149.856H141.382V180H128.326V149.856ZM133.462 165.072V174.864H136.15V165.072H133.462ZM157.554 180.048H197.778V185.28H157.554V180.048ZM162.066 148.8H193.266V163.632H168.498V171.072H162.162V158.64H186.93V153.888H162.066V148.8ZM162.162 168.576H194.274V173.664H162.162V168.576ZM233.87 145.824H239.966V190.272H233.87V145.824ZM216.254 162.864H225.758V167.904H216.254V162.864ZM224.51 146.784H230.462V188.304H224.51V146.784ZM214.814 151.056H220.958C220.958 163.728 217.166 173.808 204.686 181.056L201.086 176.592C211.214 170.496 214.814 163.104 214.814 152.352V151.056ZM203.582 151.056H216.83V156.144H203.582V151.056Z" fill="#F5F5F5"/>
<path d="M58 128.96H186V0.959999H58V128.96Z" fill="black"/>
</svg>
